<svg xmlns="http://www.w3.org/2000/svg" viewBox="0 0 36 36"><path fill="#FFDCC6" d="M17 36s-6.56-1.143-10.433-2.987a.51.51 0 0 1-.052-.888c4.533-2.858 6.779-7.963 6.496-14.768A9.52 9.52 0 0 1 13 17a1 1 0 0 1 1-1h9a1 1 0 0 1 .997.923C24.521 23.731 23.578 34.039 17 36z"/><path fill="#50A5E6" d="M18 18a1 1 0 0 1-1-1v-3a1 1 0 0 1 2 0v3a1 1 0 0 1-1 1z"/><path fill="#88C9F9" d="M26 10c0 4.418-3.582 5-8 5s-8-.582-8-5a8 8 0 0 1 16 0z"/><path fill="#BBDDF5" d="M23.558 8.984c0 3.538-2.869 4.004-6.407 4.004s-6.407-.466-6.407-4.004a6.408 6.408 0 0 1 12.814 0z"/><path fill="#F2F9FF" d="M16.031 5.528c-2.606.798-1.829 2.039-2.838 2.751-2.077 1.465-1.452-3.792 1.882-4.209 2.425-.265 2.54.973.956 1.458z"/><path fill="#50A5E6" d="M18 4a1 1 0 0 1-1-1V1a1 1 0 0 1 2 0v2a1 1 0 0 1-1 1z"/><g fill="#EA596E"><path d="M17.98 18.737c.235-.033.534.374.659.971s-.039 1.177-.355 1.221-.632-.47-.674-1.078c-.042-.608.136-1.081.37-1.114zM15.727 21.181c.083-.249.496-.492 1.036-.436.54.055 1.02.42.969.743-.051.324-.605.449-1.178.322-.572-.128-.91-.38-.827-.629zM17.415 23.776c-.245-.178-.44-.502-.26-.936s.648-.789.924-.634c.276.156.232.759.022 1.217-.21.457-.441.531-.686.353zM19.899 23.43c-.187.239-.429.23-.757-.153-.327-.383-.534-.951-.311-1.176s.77-.011 1.062.358c.292.368.193.733.006.971zM20.815 20.474c.148.217-.109.551-.624.83-.516.279-1.084.309-1.221.012s.225-.779.73-.979c.504-.201.967-.08 1.115.137z"/></g><g fill="#EA596E"><path d="M19.03 30.665c-.226.07-.588-.282-.809-.85s-.154-1.168.151-1.263c.304-.095.7.361.841.954.141.593.044 1.089-.183 1.159zM20.855 27.887c-.041.259-.409.566-.951.599s-1.075-.248-1.077-.575c-.003-.328.524-.542 1.109-.509.586.032.961.225.919.485zM18.767 25.602c.271.136.516.424.409.881s-.51.884-.808.776c-.298-.108-.353-.711-.22-1.197.132-.485.348-.596.619-.46zM16.373 26.348c.146-.266.386-.297.771.027s.682.852.498 1.11c-.184.259-.758.136-1.106-.18-.347-.315-.309-.691-.163-.957zM15.95 29.414c-.181-.19.018-.562.481-.921.463-.359 1.019-.482 1.202-.211.184.271-.095.805-.56 1.085-.465.281-.941.237-1.123.047z"/></g><g fill="#EA596E"><path d="M12.859 33.942c-.262-.025-.476-.401-.466-.858s.297-.833.624-.802c.327.031.538.455.461.905-.076.451-.357.78-.619.755zM15.581 32.57c-.118.15-.553.264-1.078.131s-.933-.487-.814-.705c.118-.218.701-.192 1.226.007s.785.416.666.567zM14.567 30.455c.202.193.283.451-.004.711s-.825.418-1.069.252c-.245-.167-.076-.593.253-.881.33-.287.618-.275.82-.082zM11.841 30.195c.234-.151.52-.109.789.235s.354.795.082.913-.77-.139-1.002-.449-.104-.548.131-.699zM10.445 32.08c-.088-.17.208-.334.761-.431s1.13-.012 1.205.224c.075.237-.393.507-.933.539s-.945-.162-1.033-.332z"/></g></svg>
