<svg xmlns="http://www.w3.org/2000/svg" viewBox="0 0 36 36"><circle fill="#FFCC4D" cx="18" cy="18" r="18"/><path fill="#65471B" d="M21.996 28c-.419 0-.81-.266-.949-.685-.359-1.081-1.789-1.565-3.047-1.565s-2.688.484-3.047 1.565a1 1 0 0 1-1.898-.631c.592-1.782 2.533-2.935 4.945-2.935s4.354 1.152 4.945 2.935A1.001 1.001 0 0 1 21.996 28zM28.994 10.011A1.005 1.005 0 0 0 28.011 9c-.067-.001-1.653-.056-3.304-1.707a.999.999 0 1 0-1.414 1.414C25.56 10.974 27.901 11 28 11a.995.995 0 0 0 .994-.989zM12.707 8.707a.999.999 0 1 0-1.414-1.414C9.652 8.934 8.075 8.998 7.99 9A1 1 0 0 0 8 11c.099 0 2.44-.026 4.707-2.293z"/><circle fill="#65471B" cx="25.116" cy="17.53" r="5"/><ellipse transform="rotate(-45.028 23.734 15.491)" fill="#FFFFFF" cx="23.736" cy="15.492" rx="2.232" ry="1.737"/><ellipse transform="rotate(-45.028 26.165 18.422)" fill="#FFFFFF" cx="26.167" cy="18.423" rx="1.116" ry=".869"/><circle fill="#65471B" cx="10.884" cy="17.53" r="5"/><ellipse transform="rotate(-45.028 11.935 18.422)" fill="#FFFFFF" cx="11.936" cy="18.423" rx="1.116" ry=".869"/><ellipse transform="rotate(-45.028 9.504 15.491)" fill="#FFFFFF" cx="9.505" cy="15.492" rx="2.232" ry="1.737"/></svg>
